<?xml version="1.0" standalone="no"?>
 <!DOCTYPE svg PUBLIC "-//W3C//DTD SVG 1.1//EN" 
 "http://www.w3.org/Graphics/SVG/1.1/DTD/svg11.dtd"> 
<svg xmlns="http://www.w3.org/2000/svg" version="1.1" 
    width="5.14858cm" height="10.2032cm" viewBox="0 0 20270 40170 ">
<title>SVG Picture created as lora-bone-brd.svg date 2017/10/16 13:31:01 </title>
  <desc>Picture generated by PCBNEW </desc>
<g style="fill:#000000; fill-opacity:1;stroke:#000000; stroke-opacity:1;
stroke-linecap:round; stroke-linejoin:round; "
 transform="translate(0 0) scale(1 1)">
</g>
<g style="fill:#000000; fill-opacity:0.0; 
stroke:#000000; stroke-width:-0.000393701; stroke-opacity:1; 
stroke-linecap:round; stroke-linejoin:round;">
</g>
<g style="fill:#000000; fill-opacity:0.0; 
stroke:#000000; stroke-width:39.3701; stroke-opacity:1; 
stroke-linecap:round; stroke-linejoin:round;">
<path d="M5284 27857
L6249 27857
" />
<path d="M5060 27641
L5060 27306
" />
<path d="M5284 27857
L5060 27641
" />
<path d="M5060 27306
L6256 27306
" />
<path d="M6256 27857
L6256 27306
" />
<path d="M4776 28066
L4288 28066
" />
<path d="M4776 27279
L4776 28066
" />
<path d="M4288 27279
L4776 27279
" />
<path d="M4288 28066
L4288 27279
" />
<path d="M12738 12597
L13226 12597
" />
<path d="M12738 13385
L12738 12597
" />
<path d="M13226 13385
L12738 13385
" />
<path d="M13226 12597
L13226 13385
" />
<path d="M11888 12597
L12376 12597
" />
<path d="M11888 13385
L11888 12597
" />
<path d="M12376 13385
L11888 13385
" />
<path d="M12376 12597
L12376 13385
" />
</g>
<g style="fill:#000000; fill-opacity:0.0; 
stroke:#000000; stroke-width:59.0551; stroke-opacity:1; 
stroke-linecap:round; stroke-linejoin:round;">
<path d="M6820 26513
L6839 26532
L6858 26569
L6858 26663
L6839 26701
L6820 26719
L6783 26738
L6745 26738
L6689 26719
L6464 26494
L6464 26738
" />
<path d="M6464 26907
L6858 26907
L6464 27132
L6858 27132
" />
<path d="M6858 27282
L6858 27544
L6464 27376
" />
<path d="M6858 27769
L6858 27807
L6839 27844
L6820 27863
L6783 27882
L6708 27900
L6614 27900
L6539 27882
L6502 27863
L6483 27844
L6464 27807
L6464 27769
L6483 27732
L6502 27713
L6539 27694
L6614 27676
L6708 27676
L6783 27694
L6820 27713
L6839 27732
L6858 27769
" />
<path d="M6858 28144
L6858 28182
L6839 28219
L6820 28238
L6783 28257
L6708 28275
L6614 28275
L6539 28257
L6502 28238
L6483 28219
L6464 28182
L6464 28144
L6483 28107
L6502 28088
L6539 28069
L6614 28050
L6708 28050
L6783 28069
L6820 28088
L6839 28107
L6858 28144
" />
<path d="M6820 28425
L6839 28444
L6858 28482
L6858 28575
L6839 28613
L6820 28632
L6783 28650
L6745 28650
L6689 28632
L6464 28407
L6464 28650
" />
</g>
<g style="fill:#000000; fill-opacity:0.0; 
stroke:#000000; stroke-width:29.5276; stroke-opacity:1; 
stroke-linecap:round; stroke-linejoin:round;">
<path d="M5639 27690
L5621 27680
L5602 27661
L5574 27633
L5555 27624
L5536 27624
" />
<path d="M5546 27671
L5527 27661
L5508 27643
L5499 27605
L5499 27540
L5508 27502
L5527 27483
L5546 27474
L5583 27474
L5602 27483
L5621 27502
L5630 27540
L5630 27605
L5621 27643
L5602 27661
L5583 27671
L5546 27671
" />
<path d="M5817 27671
L5705 27671
" />
<path d="M5761 27671
L5761 27474
L5742 27502
L5724 27521
L5705 27530
" />
</g>
<g style="fill:#000000; fill-opacity:0.0; 
stroke:#000000; stroke-width:59.0551; stroke-opacity:1; 
stroke-linecap:round; stroke-linejoin:round;">
<path d="M4404 28551
L4404 28326
" />
<path d="M4404 28438
L4798 28438
L4741 28401
L4704 28363
L4685 28326
" />
<path d="M4798 28794
L4798 28832
L4779 28869
L4760 28888
L4723 28907
L4648 28925
L4554 28925
L4479 28907
L4441 28888
L4423 28869
L4404 28832
L4404 28794
L4423 28757
L4441 28738
L4479 28719
L4554 28700
L4648 28700
L4723 28719
L4760 28738
L4779 28757
L4798 28794
" />
<path d="M4798 29169
L4798 29207
L4779 29244
L4760 29263
L4723 29282
L4648 29300
L4554 29300
L4479 29282
L4441 29263
L4423 29244
L4404 29207
L4404 29169
L4423 29132
L4441 29113
L4479 29094
L4554 29075
L4648 29075
L4723 29094
L4760 29113
L4779 29132
L4798 29169
" />
<path d="M4404 29469
L4798 29469
" />
<path d="M4554 29507
L4404 29619
" />
<path d="M4666 29619
L4516 29469
" />
</g>
<g style="fill:#000000; fill-opacity:0.0; 
stroke:#000000; stroke-width:29.5276; stroke-opacity:1; 
stroke-linecap:round; stroke-linejoin:round;">
<path d="M4443 27640
L4537 27574
" />
<path d="M4443 27527
L4640 27527
L4640 27602
L4630 27621
L4621 27630
L4602 27640
L4574 27640
L4555 27630
L4546 27621
L4537 27602
L4537 27527
" />
<path d="M4443 27827
L4443 27715
" />
<path d="M4443 27771
L4640 27771
L4612 27752
L4593 27733
L4584 27715
" />
</g>
<g style="fill:#000000; fill-opacity:0.0; 
stroke:#000000; stroke-width:59.0551; stroke-opacity:1; 
stroke-linecap:round; stroke-linejoin:round;">
<path d="M13198 14457
L13198 14269
L13010 14250
L13029 14269
L13048 14307
L13048 14400
L13029 14438
L13010 14457
L12973 14475
L12879 14475
L12841 14457
L12823 14438
L12804 14400
L12804 14307
L12823 14269
L12841 14250
" />
<path d="M12804 14644
L13198 14644
" />
<path d="M12954 14682
L12804 14794
" />
<path d="M13066 14794
L12916 14644
" />
</g>
<g style="fill:#000000; fill-opacity:0.0; 
stroke:#000000; stroke-width:29.5276; stroke-opacity:1; 
stroke-linecap:round; stroke-linejoin:round;">
<path d="M12893 12958
L12987 12892
" />
<path d="M12893 12846
L13090 12846
L13090 12921
L13080 12939
L13071 12949
L13052 12958
L13024 12958
L13005 12949
L12996 12939
L12987 12921
L12987 12846
" />
<path d="M13090 13024
L13090 13146
L13015 13080
L13015 13108
L13005 13127
L12996 13136
L12977 13146
L12930 13146
L12912 13136
L12902 13127
L12893 13108
L12893 13052
L12902 13033
L12912 13024
" />
</g>
<g style="fill:#000000; fill-opacity:0.0; 
stroke:#000000; stroke-width:59.0551; stroke-opacity:1; 
stroke-linecap:round; stroke-linejoin:round;">
<path d="M12398 14507
L12398 14319
L12210 14300
L12229 14319
L12248 14357
L12248 14450
L12229 14488
L12210 14507
L12173 14525
L12079 14525
L12041 14507
L12023 14488
L12004 14450
L12004 14357
L12023 14319
L12041 14300
" />
<path d="M12004 14694
L12398 14694
" />
<path d="M12154 14732
L12004 14844
" />
<path d="M12266 14844
L12116 14694
" />
</g>
<g style="fill:#000000; fill-opacity:0.0; 
stroke:#000000; stroke-width:29.5276; stroke-opacity:1; 
stroke-linecap:round; stroke-linejoin:round;">
<path d="M12043 12958
L12137 12892
" />
<path d="M12043 12846
L12240 12846
L12240 12921
L12230 12939
L12221 12949
L12202 12958
L12174 12958
L12155 12949
L12146 12939
L12137 12921
L12137 12846
" />
<path d="M12174 13127
L12043 13127
" />
<path d="M12249 13080
L12109 13033
L12109 13155
" />
</g>
<g style="fill:#000000; fill-opacity:0.0; 
stroke:#000000; stroke-width:59.0551; stroke-opacity:1; 
stroke-linecap:round; stroke-linejoin:round;">
<path d="M16021 745
L4210 745
" />
<path d="M16021 39327
L4210 39327
" />
<path d="M4210 39327
L4210 745
" />
<path d="M16021 39327
L16021 745
" />
</g> 
</svg>
