<?xml version="1.0" standalone="no"?>
 <!DOCTYPE svg PUBLIC "-//W3C//DTD SVG 1.1//EN" 
 "http://www.w3.org/Graphics/SVG/1.1/DTD/svg11.dtd"> 
<svg xmlns="http://www.w3.org/2000/svg" version="1.1" 
    width="5.14858cm" height="10.2032cm" viewBox="0 0 20270 40170 ">
<title>SVG Picture created as lora-bone-brd.svg date 2017/10/16 13:25:08 </title>
  <desc>Picture generated by PCBNEW </desc>
<g style="fill:#000000; fill-opacity:1;stroke:#000000; stroke-opacity:1;
stroke-linecap:round; stroke-linejoin:round; "
 transform="translate(0 0) scale(1 1)">
</g>
<g style="fill:#000000; fill-opacity:0.0; 
stroke:#000000; stroke-width:-0.000393701; stroke-opacity:1; 
stroke-linecap:round; stroke-linejoin:round;">
</g>
<g style="fill:#000000; fill-opacity:0.0; 
stroke:#000000; stroke-width:39.3701; stroke-opacity:1; 
stroke-linecap:round; stroke-linejoin:round;">
<path d="M15687 22172
L14937 22172
" />
<path d="M14937 22172
L14937 18172
" />
<path d="M14937 18172
L15937 18172
" />
<path d="M15937 18172
L15937 21922
" />
<path d="M15937 21922
L15687 22172
" />
<path d="M4687 30172
L5437 30172
" />
<path d="M5437 30172
L5437 34172
" />
<path d="M5437 34172
L4437 34172
" />
<path d="M4437 34172
L4437 30422
" />
<path d="M4437 30422
L4687 30172
" />
<path d="M4687 22172
L5437 22172
" />
<path d="M5437 22172
L5437 26172
" />
<path d="M5437 26172
L4437 26172
" />
<path d="M4437 26172
L4437 22422
" />
<path d="M4437 22422
L4687 22172
" />
<path d="M6903 18158
L7653 18158
" />
<path d="M7653 18158
L7653 38158
" />
<path d="M7653 38158
L6653 38158
" />
<path d="M6653 38158
L6653 18408
" />
<path d="M6653 18408
L6903 18158
" />
<path d="M15587 36872
L14837 36872
" />
<path d="M14837 36872
L14837 33872
" />
<path d="M14837 33872
L15837 33872
" />
<path d="M15837 33872
L15837 36622
" />
<path d="M15837 36622
L15587 36872
" />
<path d="M14487 16072
L13737 16072
" />
<path d="M13737 16072
L13737 12072
" />
<path d="M13737 12072
L14737 12072
" />
<path d="M14737 12072
L14737 15822
" />
<path d="M14737 15822
L14487 16072
" />
<path d="M12903 18158
L13653 18158
" />
<path d="M13653 18158
L13653 38158
" />
<path d="M13653 38158
L12653 38158
" />
<path d="M12653 38158
L12653 18408
" />
<path d="M12653 18408
L12903 18158
" />
<path d="M5687 12072
L6437 12072
" />
<path d="M6437 12072
L6437 16072
" />
<path d="M6437 16072
L5437 16072
" />
<path d="M5437 16072
L5437 12322
" />
<path d="M5437 12322
L5687 12072
" />
<path d="M15587 32972
L14837 32972
" />
<path d="M14837 32972
L14837 29972
" />
<path d="M14837 29972
L15837 29972
" />
<path d="M15837 29972
L15837 32722
" />
<path d="M15837 32722
L15587 32972
" />
<path d="M9736 1359
L10138 1359
" />
<path d="M10185 1312
L10185 3808
" />
<path d="M7689 3808
L10185 3808
" />
<path d="M7689 1312
L7689 3808
" />
<path d="M7689 1312
L10185 1312
" />
<path d="M8138 1359
L8138 1761
" />
<path d="M7736 1761
L8138 1761
" />
<path d="M8138 3359
L8138 3761
" />
<path d="M7736 3359
L8138 3359
" />
<path d="M9736 1359
L9736 1761
" />
<path d="M9736 1761
L10138 1761
" />
<path d="M10138 3359
L9736 3359
" />
<path d="M9736 3359
L9736 3761
" />
<circle cx="8937.46" cy="2560.24" r="803.15" /> 
<circle cx="8937.46" cy="2560.24" r="250" /> 
<path d="M10138 1359
L10138 1761
" />
<path d="M7736 1359
L7736 1761
" />
<path d="M7736 1359
L8138 1359
" />
<path d="M7736 3761
L8138 3761
" />
<path d="M7736 3761
L7736 3359
" />
<path d="M10138 3359
L10138 3761
" />
<path d="M9736 3761
L10138 3761
" />
<path d="M5381 8166
L4893 8166
" />
<path d="M5381 7379
L5381 8166
" />
<path d="M4893 7379
L5381 7379
" />
<path d="M4893 8166
L4893 7379
" />
<path d="M14937 24472
L14937 26472
" />
<path d="M14937 26472
L15937 26472
" />
<path d="M15937 26472
L15937 24472
" />
<path d="M15937 24472
L14937 24472
" />
<path d="M14193 22910
L14681 22910
" />
<path d="M14193 23698
L14193 22910
" />
<path d="M14681 23698
L14193 23698
" />
<path d="M14681 22910
L14681 23698
" />
</g>
<g style="fill:#000000; fill-opacity:0.0; 
stroke:#000000; stroke-width:59.0551; stroke-opacity:1; 
stroke-linecap:round; stroke-linejoin:round;">
<path d="M12337 9872
L12337 7472
" />
<path d="M10037 9872
L12337 9872
" />
<path d="M10037 7472
L10037 9872
" />
<path d="M12337 7472
L10037 7472
" />
<path d="M7187 10972
L13487 10972
" />
<path d="M13487 4672
L7187 4672
" />
<path d="M14528 17933
L14528 17539
L14678 17539
L14715 17558
L14734 17577
L14753 17614
L14753 17671
L14734 17708
L14715 17727
L14678 17746
L14528 17746
" />
<path d="M14996 17539
L15071 17539
L15109 17558
L15146 17596
L15165 17671
L15165 17802
L15146 17877
L15109 17914
L15071 17933
L14996 17933
L14959 17914
L14921 17877
L14903 17802
L14903 17671
L14921 17596
L14959 17558
L14996 17539
" />
<path d="M15296 17539
L15390 17933
L15465 17652
L15540 17933
L15634 17539
" />
<path d="M15784 17727
L15915 17727
" />
<path d="M15971 17933
L15784 17933
L15784 17539
L15971 17539
" />
<path d="M16365 17933
L16234 17746
" />
<path d="M16140 17933
L16140 17539
L16290 17539
L16327 17558
L16346 17577
L16365 17614
L16365 17671
L16346 17708
L16327 17727
L16290 17746
L16140 17746
" />
<path d="M15221 20304
L15503 20304
L15559 20322
L15596 20360
L15615 20416
L15615 20454
" />
<path d="M15259 20135
L15240 20116
L15221 20079
L15221 19985
L15240 19947
L15259 19929
L15296 19910
L15334 19910
L15390 19929
L15615 20154
L15615 19910
" />
<path d="M4543 34393
L4506 34374
L4450 34374
L4393 34393
L4356 34430
L4337 34468
L4318 34543
L4318 34599
L4337 34674
L4356 34712
L4393 34749
L4450 34768
L4487 34768
L4543 34749
L4562 34730
L4562 34599
L4487 34599
" />
<path d="M4731 34768
L4731 34374
L4881 34374
L4918 34393
L4937 34412
L4956 34449
L4956 34505
L4937 34543
L4918 34562
L4881 34580
L4731 34580
" />
<path d="M5124 34768
L5124 34374
" />
<path d="M5387 34374
L5462 34374
L5499 34393
L5537 34430
L5556 34505
L5556 34637
L5537 34712
L5499 34749
L5462 34768
L5387 34768
L5349 34749
L5312 34712
L5293 34637
L5293 34505
L5312 34430
L5349 34393
L5387 34374
" />
<path d="M4721 32304
L5003 32304
L5059 32322
L5096 32360
L5115 32416
L5115 32454
" />
<path d="M4890 32060
L4871 32097
L4853 32116
L4815 32135
L4796 32135
L4759 32116
L4740 32097
L4721 32060
L4721 31985
L4740 31947
L4759 31929
L4796 31910
L4815 31910
L4853 31929
L4871 31947
L4890 31985
L4890 32060
L4909 32097
L4928 32116
L4965 32135
L5040 32135
L5078 32116
L5096 32097
L5115 32060
L5115 31985
L5096 31947
L5078 31929
L5040 31910
L4965 31910
L4928 31929
L4909 31947
L4890 31985
" />
<path d="M3578 26655
L3765 26655
" />
<path d="M3540 26768
L3671 26374
L3803 26768
" />
<path d="M3934 26505
L3934 26768
" />
<path d="M3934 26543
L3953 26524
L3990 26505
L4046 26505
L4084 26524
L4103 26562
L4103 26768
" />
<path d="M4459 26768
L4459 26562
L4440 26524
L4403 26505
L4328 26505
L4290 26524
" />
<path d="M4459 26749
L4421 26768
L4328 26768
L4290 26749
L4271 26712
L4271 26674
L4290 26637
L4328 26618
L4421 26618
L4459 26599
" />
<path d="M4703 26768
L4665 26749
L4646 26712
L4646 26374
" />
<path d="M4909 26768
L4871 26749
L4853 26730
L4834 26693
L4834 26580
L4853 26543
L4871 26524
L4909 26505
L4965 26505
L5003 26524
L5021 26543
L5040 26580
L5040 26693
L5021 26730
L5003 26749
L4965 26768
L4909 26768
" />
<path d="M5378 26505
L5378 26824
L5359 26861
L5340 26880
L5303 26899
L5246 26899
L5209 26880
" />
<path d="M5378 26749
L5340 26768
L5265 26768
L5228 26749
L5209 26730
L5190 26693
L5190 26580
L5209 26543
L5228 26524
L5265 26505
L5340 26505
L5378 26524
" />
<path d="M5865 26768
L5865 26374
" />
<path d="M6052 26768
L6052 26374
L6277 26768
L6277 26374
" />
<path d="M4721 24304
L5003 24304
L5059 24322
L5096 24360
L5115 24416
L5115 24454
" />
<path d="M5115 23910
L5115 24135
" />
<path d="M5115 24022
L4721 24022
L4778 24060
L4815 24097
L4834 24135
" />
<path d="M5607 38547
L5663 38566
L5682 38585
L5701 38622
L5701 38679
L5682 38716
L5663 38735
L5626 38754
L5476 38754
L5476 38360
L5607 38360
L5644 38379
L5663 38397
L5682 38435
L5682 38472
L5663 38510
L5644 38529
L5607 38547
L5476 38547
" />
<path d="M5926 38754
L5888 38735
L5869 38697
L5869 38360
" />
<path d="M6244 38491
L6244 38754
" />
<path d="M6076 38491
L6076 38697
L6094 38735
L6132 38754
L6188 38754
L6225 38735
L6244 38716
" />
<path d="M6582 38735
L6544 38754
L6469 38754
L6432 38735
L6413 38697
L6413 38547
L6432 38510
L6469 38491
L6544 38491
L6582 38510
L6600 38547
L6600 38585
L6413 38622
" />
<path d="M6769 38491
L6769 38885
" />
<path d="M6769 38510
L6807 38491
L6882 38491
L6919 38510
L6938 38529
L6957 38566
L6957 38679
L6938 38716
L6919 38735
L6882 38754
L6807 38754
L6769 38735
" />
<path d="M7125 38754
L7125 38491
" />
<path d="M7125 38360
L7107 38379
L7125 38397
L7144 38379
L7125 38360
L7125 38397
" />
<path d="M7369 38754
L7332 38735
L7313 38697
L7313 38360
" />
<path d="M7575 38754
L7538 38735
L7519 38697
L7519 38360
" />
<path d="M8082 38754
L8044 38735
L8025 38697
L8025 38360
" />
<path d="M8381 38735
L8344 38754
L8269 38754
L8231 38735
L8213 38697
L8213 38547
L8231 38510
L8269 38491
L8344 38491
L8381 38510
L8400 38547
L8400 38585
L8213 38622
" />
<path d="M8513 38491
L8663 38491
" />
<path d="M8569 38754
L8569 38416
L8588 38379
L8625 38360
L8663 38360
" />
<path d="M8738 38491
L8888 38491
" />
<path d="M8794 38360
L8794 38697
L8813 38735
L8850 38754
L8888 38754
" />
<path d="M6938 28289
L7219 28289
L7275 28308
L7313 28346
L7332 28402
L7332 28439
" />
<path d="M6938 28139
L6938 27896
L7088 28027
L7088 27971
L7107 27933
L7125 27914
L7163 27896
L7257 27896
L7294 27914
L7313 27933
L7332 27971
L7332 28083
L7313 28121
L7294 28139
" />
<path d="M14071 33633
L14071 33239
L14221 33239
L14259 33258
L14278 33277
L14296 33314
L14296 33371
L14278 33408
L14259 33427
L14221 33446
L14071 33446
" />
<path d="M14428 33239
L14521 33633
L14596 33352
L14671 33633
L14765 33239
" />
<path d="M14915 33633
L14915 33239
L15046 33521
L15178 33239
L15178 33633
" />
<path d="M15740 33239
L15815 33239
L15853 33258
L15890 33296
L15909 33371
L15909 33502
L15890 33577
L15853 33614
L15815 33633
L15740 33633
L15703 33614
L15665 33577
L15646 33502
L15646 33371
L15665 33296
L15703 33258
L15740 33239
" />
<path d="M16077 33239
L16077 33558
L16096 33596
L16115 33614
L16152 33633
L16227 33633
L16265 33614
L16284 33596
L16302 33558
L16302 33239
" />
<path d="M16434 33239
L16659 33239
" />
<path d="M16546 33633
L16546 33239
" />
<path d="M15121 35504
L15403 35504
L15459 35522
L15496 35560
L15515 35616
L15515 35654
" />
<path d="M15253 35147
L15515 35147
" />
<path d="M15103 35241
L15384 35335
L15384 35091
" />
<path d="M13121 11814
L13178 11833
L13271 11833
L13309 11814
L13328 11796
L13346 11758
L13346 11721
L13328 11683
L13309 11664
L13271 11646
L13196 11627
L13159 11608
L13140 11589
L13121 11552
L13121 11514
L13140 11477
L13159 11458
L13196 11439
L13290 11439
L13346 11458
" />
<path d="M13515 11833
L13515 11439
L13665 11439
L13703 11458
L13721 11477
L13740 11514
L13740 11571
L13721 11608
L13703 11627
L13665 11646
L13515 11646
" />
<path d="M13909 11833
L13909 11439
" />
<path d="M14471 11439
L14546 11439
L14584 11458
L14621 11496
L14640 11571
L14640 11702
L14621 11777
L14584 11814
L14546 11833
L14471 11833
L14434 11814
L14396 11777
L14378 11702
L14378 11571
L14396 11496
L14434 11458
L14471 11439
" />
<path d="M14809 11439
L14809 11758
L14828 11796
L14846 11814
L14884 11833
L14959 11833
L14996 11814
L15015 11796
L15034 11758
L15034 11439
" />
<path d="M15165 11439
L15390 11439
" />
<path d="M15277 11833
L15277 11439
" />
<path d="M14021 14204
L14303 14204
L14359 14222
L14396 14260
L14415 14316
L14415 14354
" />
<path d="M14021 13829
L14021 14016
L14209 14035
L14190 14016
L14171 13979
L14171 13885
L14190 13847
L14209 13829
L14246 13810
L14340 13810
L14378 13829
L14396 13847
L14415 13885
L14415 13979
L14396 14016
L14378 14035
" />
<path d="M11419 38547
L11476 38566
L11494 38585
L11513 38622
L11513 38679
L11494 38716
L11476 38735
L11438 38754
L11288 38754
L11288 38360
L11419 38360
L11457 38379
L11476 38397
L11494 38435
L11494 38472
L11476 38510
L11457 38529
L11419 38547
L11288 38547
" />
<path d="M11738 38754
L11701 38735
L11682 38697
L11682 38360
" />
<path d="M12057 38491
L12057 38754
" />
<path d="M11888 38491
L11888 38697
L11907 38735
L11944 38754
L12001 38754
L12038 38735
L12057 38716
" />
<path d="M12394 38735
L12357 38754
L12282 38754
L12244 38735
L12225 38697
L12225 38547
L12244 38510
L12282 38491
L12357 38491
L12394 38510
L12413 38547
L12413 38585
L12225 38622
" />
<path d="M12582 38491
L12582 38885
" />
<path d="M12582 38510
L12619 38491
L12694 38491
L12732 38510
L12750 38529
L12769 38566
L12769 38679
L12750 38716
L12732 38735
L12694 38754
L12619 38754
L12582 38735
" />
<path d="M12938 38754
L12938 38491
" />
<path d="M12938 38360
L12919 38379
L12938 38397
L12957 38379
L12938 38360
L12938 38397
" />
<path d="M13182 38754
L13144 38735
L13125 38697
L13125 38360
" />
<path d="M13388 38754
L13350 38735
L13332 38697
L13332 38360
" />
<path d="M13838 38754
L13838 38491
" />
<path d="M13838 38566
L13857 38529
L13875 38510
L13913 38491
L13950 38491
" />
<path d="M14082 38754
L14082 38491
" />
<path d="M14082 38360
L14063 38379
L14082 38397
L14100 38379
L14082 38360
L14082 38397
" />
<path d="M14438 38491
L14438 38810
L14419 38847
L14400 38866
L14363 38885
L14306 38885
L14269 38866
" />
<path d="M14438 38735
L14400 38754
L14325 38754
L14288 38735
L14269 38716
L14250 38679
L14250 38566
L14269 38529
L14288 38510
L14325 38491
L14400 38491
L14438 38510
" />
<path d="M14625 38754
L14625 38360
" />
<path d="M14794 38754
L14794 38547
L14775 38510
L14738 38491
L14681 38491
L14644 38510
L14625 38529
" />
<path d="M14925 38491
L15075 38491
" />
<path d="M14981 38360
L14981 38697
L15000 38735
L15038 38754
L15075 38754
" />
<path d="M12938 28289
L13219 28289
L13275 28308
L13313 28346
L13332 28402
L13332 28439
" />
<path d="M12938 27933
L12938 28008
L12957 28046
L12975 28064
L13032 28102
L13107 28121
L13257 28121
L13294 28102
L13313 28083
L13332 28046
L13332 27971
L13313 27933
L13294 27914
L13257 27896
L13163 27896
L13125 27914
L13107 27933
L13088 27971
L13088 28046
L13107 28083
L13125 28102
L13163 28121
" />
<path d="M5553 16668
L5553 16274
" />
<path d="M5721 16312
L5740 16293
L5778 16274
L5871 16274
L5909 16293
L5928 16312
L5946 16349
L5946 16387
L5928 16443
L5703 16668
L5946 16668
" />
<path d="M6340 16630
L6321 16649
L6265 16668
L6228 16668
L6171 16649
L6134 16612
L6115 16574
L6096 16499
L6096 16443
L6115 16368
L6134 16330
L6171 16293
L6228 16274
L6265 16274
L6321 16293
L6340 16312
" />
<path d="M5721 14204
L6003 14204
L6059 14222
L6096 14260
L6115 14316
L6115 14354
" />
<path d="M5721 14054
L5721 13791
L6115 13960
" />
<path d="M14709 29339
L14709 29658
L14728 29696
L14746 29714
L14784 29733
L14859 29733
L14896 29714
L14915 29696
L14934 29658
L14934 29339
" />
<path d="M15103 29621
L15290 29621
" />
<path d="M15065 29733
L15196 29339
L15328 29733
" />
<path d="M15684 29733
L15553 29546
" />
<path d="M15459 29733
L15459 29339
L15609 29339
L15646 29358
L15665 29377
L15684 29414
L15684 29471
L15665 29508
L15646 29527
L15609 29546
L15459 29546
" />
<path d="M15796 29339
L16021 29339
" />
<path d="M15909 29733
L15909 29339
" />
<path d="M15121 31604
L15403 31604
L15459 31622
L15496 31660
L15515 31716
L15515 31754
" />
<path d="M15515 31397
L15515 31322
L15496 31285
L15478 31266
L15421 31229
L15346 31210
L15196 31210
L15159 31229
L15140 31247
L15121 31285
L15121 31360
L15140 31397
L15159 31416
L15196 31435
L15290 31435
L15328 31416
L15346 31397
L15365 31360
L15365 31285
L15346 31247
L15328 31229
L15290 31210
" />
<path d="M10859 3863
L10840 3882
L10784 3900
L10747 3900
L10690 3882
L10653 3844
L10634 3807
L10615 3732
L10615 3675
L10634 3600
L10653 3563
L10690 3525
L10747 3507
L10784 3507
L10840 3525
L10859 3544
" />
<path d="M11103 3507
L11178 3507
L11215 3525
L11253 3563
L11272 3638
L11272 3769
L11253 3844
L11215 3882
L11178 3900
L11103 3900
L11065 3882
L11028 3844
L11009 3769
L11009 3638
L11028 3563
L11065 3525
L11103 3507
" />
<path d="M11440 3900
L11440 3507
L11665 3900
L11665 3507
" />
<path d="M11853 3900
L11853 3507
L12078 3900
L12078 3507
" />
<path d="M12171 3938
L12471 3938
" />
<path d="M12790 3863
L12771 3882
L12715 3900
L12678 3900
L12621 3882
L12584 3844
L12565 3807
L12546 3732
L12546 3675
L12565 3600
L12584 3563
L12621 3525
L12678 3507
L12715 3507
L12771 3525
L12790 3544
" />
<path d="M13034 3507
L13109 3507
L13146 3525
L13184 3563
L13203 3638
L13203 3769
L13184 3844
L13146 3882
L13109 3900
L13034 3900
L12996 3882
L12959 3844
L12940 3769
L12940 3638
L12959 3563
L12996 3525
L13034 3507
" />
<path d="M13352 3788
L13540 3788
" />
<path d="M13315 3900
L13446 3507
L13577 3900
" />
<path d="M13671 3507
L13934 3900
" />
<path d="M13934 3507
L13671 3900
" />
<path d="M14084 3900
L14084 3507
" />
<path d="M14252 3788
L14440 3788
" />
<path d="M14215 3900
L14346 3507
L14477 3900
" />
<path d="M14796 3900
L14609 3900
L14609 3507
" />
<path d="M10750 2788
L10937 2788
" />
<path d="M10712 2900
L10843 2507
L10975 2900
" />
<path d="M11106 2900
L11106 2507
L11331 2900
L11331 2507
" />
<path d="M11462 2507
L11687 2507
" />
<path d="M11574 2900
L11574 2507
" />
<path d="M12024 2900
L11799 2900
" />
<path d="M11912 2900
L11912 2507
L11874 2563
L11837 2600
L11799 2619
" />
<path d="M6004 8532
L6004 8757
" />
<path d="M6004 8644
L5610 8644
L5667 8682
L5704 8719
L5723 8757
" />
<path d="M5610 8288
L5610 8250
L5629 8213
L5648 8194
L5685 8175
L5760 8157
L5854 8157
L5929 8175
L5967 8194
L5985 8213
L6004 8250
L6004 8288
L5985 8325
L5967 8344
L5929 8363
L5854 8382
L5760 8382
L5685 8363
L5648 8344
L5629 8325
L5610 8288
" />
<path d="M5610 7913
L5610 7875
L5629 7838
L5648 7819
L5685 7800
L5760 7782
L5854 7782
L5929 7800
L5967 7819
L5985 7838
L6004 7875
L6004 7913
L5985 7950
L5967 7969
L5929 7988
L5854 8007
L5760 8007
L5685 7988
L5648 7969
L5629 7950
L5610 7913
" />
<path d="M5742 7313
L6004 7313
" />
<path d="M5779 7313
L5760 7294
L5742 7257
L5742 7201
L5760 7163
L5798 7144
L6004 7144
" />
<path d="M5798 6826
L5798 6957
" />
<path d="M6004 6957
L5610 6957
L5610 6769
" />
<path d="M4589 7838
L4607 7857
L4626 7913
L4626 7950
L4607 8007
L4570 8044
L4532 8063
L4457 8082
L4401 8082
L4326 8063
L4289 8044
L4251 8007
L4232 7950
L4232 7913
L4251 7857
L4270 7838
" />
<path d="M4626 7463
L4626 7688
" />
<path d="M4626 7575
L4232 7575
L4289 7613
L4326 7650
L4345 7688
" />
<path d="M13815 27091
L13815 26698
L13965 26698
L14003 26716
L14022 26735
L14040 26773
L14040 26829
L14022 26866
L14003 26885
L13965 26904
L13815 26904
" />
<path d="M14284 26698
L14359 26698
L14396 26716
L14434 26754
L14453 26829
L14453 26960
L14434 27035
L14396 27073
L14359 27091
L14284 27091
L14246 27073
L14209 27035
L14190 26960
L14190 26829
L14209 26754
L14246 26716
L14284 26698
" />
<path d="M14584 26698
L14678 27091
L14753 26810
L14828 27091
L14921 26698
" />
<path d="M15071 26885
L15203 26885
" />
<path d="M15259 27091
L15071 27091
L15071 26698
L15259 26698
" />
<path d="M15653 27091
L15521 26904
" />
<path d="M15428 27091
L15428 26698
L15578 26698
L15615 26716
L15634 26735
L15653 26773
L15653 26829
L15634 26866
L15615 26885
L15578 26904
L15428 26904
" />
<path d="M16196 26698
L16271 26698
L16309 26716
L16346 26754
L16365 26829
L16365 26960
L16346 27035
L16309 27073
L16271 27091
L16196 27091
L16159 27073
L16121 27035
L16102 26960
L16102 26829
L16121 26754
L16159 26716
L16196 26698
" />
<path d="M16534 26698
L16534 27016
L16552 27054
L16571 27073
L16609 27091
L16684 27091
L16721 27073
L16740 27054
L16759 27016
L16759 26698
" />
<path d="M16890 26698
L17115 26698
" />
<path d="M17002 27091
L17002 26698
" />
<path d="M13532 23369
L13532 23557
L13720 23576
L13701 23557
L13682 23519
L13682 23426
L13701 23388
L13720 23369
L13757 23351
L13851 23351
L13889 23369
L13907 23388
L13926 23426
L13926 23519
L13907 23557
L13889 23576
" />
<path d="M13926 23182
L13532 23182
" />
<path d="M13776 23144
L13926 23032
" />
<path d="M13664 23032
L13814 23182
" />
</g>
<g style="fill:#000000; fill-opacity:0.0; 
stroke:#000000; stroke-width:29.5276; stroke-opacity:1; 
stroke-linecap:round; stroke-linejoin:round;">
<path d="M14526 23337
L14432 23402
" />
<path d="M14526 23449
L14329 23449
L14329 23374
L14339 23355
L14348 23346
L14367 23337
L14395 23337
L14414 23346
L14423 23355
L14432 23374
L14432 23449
" />
<path d="M14348 23262
L14339 23252
L14329 23234
L14329 23187
L14339 23168
L14348 23159
L14367 23149
L14385 23149
L14414 23159
L14526 23271
L14526 23149
" />
</g>
<g style="fill:#000000; fill-opacity:0.0; 
stroke:#000000; stroke-width:59.0551; stroke-opacity:1; 
stroke-linecap:round; stroke-linejoin:round;">
<path d="M9415 6800
L9284 6613
" />
<path d="M9190 6800
L9190 6407
L9340 6407
L9378 6425
L9396 6444
L9415 6482
L9415 6538
L9396 6575
L9378 6594
L9340 6613
L9190 6613
" />
<path d="M9715 6594
L9584 6594
" />
<path d="M9584 6800
L9584 6407
L9771 6407
" />
<path d="M9921 6800
L9921 6407
L10053 6688
L10184 6407
L10184 6800
" />
<path d="M10390 6800
L10465 6800
L10503 6782
L10521 6763
L10559 6707
L10578 6632
L10578 6482
L10559 6444
L10540 6425
L10503 6407
L10428 6407
L10390 6425
L10371 6444
L10353 6482
L10353 6575
L10371 6613
L10390 6632
L10428 6650
L10503 6650
L10540 6632
L10559 6613
L10578 6575
" />
<path d="M10934 6407
L10746 6407
L10728 6594
L10746 6575
L10784 6557
L10878 6557
L10915 6575
L10934 6594
L10953 6632
L10953 6725
L10934 6763
L10915 6782
L10878 6800
L10784 6800
L10746 6782
L10728 6763
" />
<path d="M11084 6407
L11177 6800
L11252 6519
L11327 6800
L11421 6407
" />
<path d="M4248 745
L16059 745
" />
<path d="M4248 39327
L16059 39327
" />
<path d="M16059 39327
L16059 745
" />
<path d="M4248 39327
L4248 745
" />
</g> 
</svg>
