G04 #@! TF.FileFunction,Soldermask,Bot*
%FSLAX46Y46*%
G04 Gerber Fmt 4.6, Leading zero omitted, Abs format (unit mm)*
G04 Created by KiCad (PCBNEW 4.0.6) date Tue Sep  5 22:17:11 2017*
%MOMM*%
%LPD*%
G01*
G04 APERTURE LIST*
%ADD10C,0.100000*%
%ADD11R,1.200000X2.300000*%
%ADD12C,3.600000*%
%ADD13R,2.100000X2.100000*%
%ADD14O,2.100000X2.100000*%
%ADD15R,1.370000X1.670000*%
%ADD16R,1.670000X1.370000*%
%ADD17C,2.600000*%
%ADD18C,2.400000*%
%ADD19R,1.700000X1.900000*%
G04 APERTURE END LIST*
D10*
D11*
X79497000Y-95631000D03*
X77597000Y-95631000D03*
X78547000Y-92631000D03*
D12*
X54991000Y-28797000D03*
X54991000Y-121285000D03*
X79375000Y-121285000D03*
D13*
X80645000Y-79121000D03*
D14*
X80645000Y-76581000D03*
X80645000Y-74041000D03*
X80645000Y-71501000D03*
D13*
X53975000Y-101981000D03*
D14*
X53975000Y-104521000D03*
X53975000Y-107061000D03*
X53975000Y-109601000D03*
D15*
X70485000Y-99441000D03*
X71765000Y-99441000D03*
X70485000Y-101981000D03*
X71765000Y-101981000D03*
D16*
X72009000Y-120147000D03*
X72009000Y-118867000D03*
D13*
X53975000Y-81661000D03*
D14*
X53975000Y-84201000D03*
X53975000Y-86741000D03*
X53975000Y-89281000D03*
D13*
X59605000Y-71465000D03*
D14*
X59605000Y-74005000D03*
X59605000Y-76545000D03*
X59605000Y-79085000D03*
X59605000Y-81625000D03*
X59605000Y-84165000D03*
X59605000Y-86705000D03*
X59605000Y-89245000D03*
X59605000Y-91785000D03*
X59605000Y-94325000D03*
X59605000Y-96865000D03*
X59605000Y-99405000D03*
X59605000Y-101945000D03*
X59605000Y-104485000D03*
X59605000Y-107025000D03*
X59605000Y-109565000D03*
X59605000Y-112105000D03*
X59605000Y-114645000D03*
X59605000Y-117185000D03*
X59605000Y-119725000D03*
D13*
X80391000Y-116459000D03*
D14*
X80391000Y-113919000D03*
X80391000Y-111379000D03*
D13*
X77597000Y-63627000D03*
D14*
X77597000Y-61087000D03*
X77597000Y-58547000D03*
X77597000Y-56007000D03*
D13*
X74845000Y-71465000D03*
D14*
X74845000Y-74005000D03*
X74845000Y-76545000D03*
X74845000Y-79085000D03*
X74845000Y-81625000D03*
X74845000Y-84165000D03*
X74845000Y-86705000D03*
X74845000Y-89245000D03*
X74845000Y-91785000D03*
X74845000Y-94325000D03*
X74845000Y-96865000D03*
X74845000Y-99405000D03*
X74845000Y-101945000D03*
X74845000Y-104485000D03*
X74845000Y-107025000D03*
X74845000Y-109565000D03*
X74845000Y-112105000D03*
X74845000Y-114645000D03*
X74845000Y-117185000D03*
X74845000Y-119725000D03*
D13*
X56515000Y-56007000D03*
D14*
X56515000Y-58547000D03*
X56515000Y-61087000D03*
X56515000Y-63627000D03*
D13*
X80391000Y-106553000D03*
D14*
X80391000Y-104013000D03*
X80391000Y-101473000D03*
D15*
X70485000Y-96901000D03*
X71765000Y-96901000D03*
D17*
X61595000Y-33115000D03*
X61595000Y-28035000D03*
X66675000Y-28035000D03*
X66675000Y-33115000D03*
D18*
X64135000Y-30575000D03*
D12*
X79375000Y-28797000D03*
D13*
X80645000Y-87503000D03*
D14*
X80645000Y-90043000D03*
D19*
X81407000Y-95711000D03*
X81407000Y-93011000D03*
X59944000Y-55720000D03*
X59944000Y-58420000D03*
X62103000Y-55720000D03*
X62103000Y-58420000D03*
D11*
X112517000Y-95631000D03*
X110617000Y-95631000D03*
X111567000Y-92631000D03*
D12*
X88011000Y-28797000D03*
X88011000Y-121285000D03*
X112395000Y-121285000D03*
D13*
X113665000Y-79121000D03*
D14*
X113665000Y-76581000D03*
X113665000Y-74041000D03*
X113665000Y-71501000D03*
D13*
X86995000Y-101981000D03*
D14*
X86995000Y-104521000D03*
X86995000Y-107061000D03*
X86995000Y-109601000D03*
D15*
X103505000Y-99441000D03*
X104785000Y-99441000D03*
X103505000Y-101981000D03*
X104785000Y-101981000D03*
D16*
X105029000Y-120147000D03*
X105029000Y-118867000D03*
D13*
X86995000Y-81661000D03*
D14*
X86995000Y-84201000D03*
X86995000Y-86741000D03*
X86995000Y-89281000D03*
D13*
X92625000Y-71465000D03*
D14*
X92625000Y-74005000D03*
X92625000Y-76545000D03*
X92625000Y-79085000D03*
X92625000Y-81625000D03*
X92625000Y-84165000D03*
X92625000Y-86705000D03*
X92625000Y-89245000D03*
X92625000Y-91785000D03*
X92625000Y-94325000D03*
X92625000Y-96865000D03*
X92625000Y-99405000D03*
X92625000Y-101945000D03*
X92625000Y-104485000D03*
X92625000Y-107025000D03*
X92625000Y-109565000D03*
X92625000Y-112105000D03*
X92625000Y-114645000D03*
X92625000Y-117185000D03*
X92625000Y-119725000D03*
D13*
X113411000Y-116459000D03*
D14*
X113411000Y-113919000D03*
X113411000Y-111379000D03*
D13*
X110617000Y-63627000D03*
D14*
X110617000Y-61087000D03*
X110617000Y-58547000D03*
X110617000Y-56007000D03*
D13*
X107865000Y-71465000D03*
D14*
X107865000Y-74005000D03*
X107865000Y-76545000D03*
X107865000Y-79085000D03*
X107865000Y-81625000D03*
X107865000Y-84165000D03*
X107865000Y-86705000D03*
X107865000Y-89245000D03*
X107865000Y-91785000D03*
X107865000Y-94325000D03*
X107865000Y-96865000D03*
X107865000Y-99405000D03*
X107865000Y-101945000D03*
X107865000Y-104485000D03*
X107865000Y-107025000D03*
X107865000Y-109565000D03*
X107865000Y-112105000D03*
X107865000Y-114645000D03*
X107865000Y-117185000D03*
X107865000Y-119725000D03*
D13*
X89535000Y-56007000D03*
D14*
X89535000Y-58547000D03*
X89535000Y-61087000D03*
X89535000Y-63627000D03*
D13*
X113411000Y-106553000D03*
D14*
X113411000Y-104013000D03*
X113411000Y-101473000D03*
D15*
X103505000Y-96901000D03*
X104785000Y-96901000D03*
D17*
X94615000Y-33115000D03*
X94615000Y-28035000D03*
X99695000Y-28035000D03*
X99695000Y-33115000D03*
D18*
X97155000Y-30575000D03*
D12*
X112395000Y-28797000D03*
D13*
X113665000Y-87503000D03*
D14*
X113665000Y-90043000D03*
D19*
X114427000Y-95711000D03*
X114427000Y-93011000D03*
X92964000Y-55720000D03*
X92964000Y-58420000D03*
X95123000Y-55720000D03*
X95123000Y-58420000D03*
D11*
X145537000Y-95631000D03*
X143637000Y-95631000D03*
X144587000Y-92631000D03*
D12*
X121031000Y-28797000D03*
X121031000Y-121285000D03*
X145415000Y-121285000D03*
D13*
X146685000Y-79121000D03*
D14*
X146685000Y-76581000D03*
X146685000Y-74041000D03*
X146685000Y-71501000D03*
D13*
X120015000Y-101981000D03*
D14*
X120015000Y-104521000D03*
X120015000Y-107061000D03*
X120015000Y-109601000D03*
D15*
X136525000Y-99441000D03*
X137805000Y-99441000D03*
X136525000Y-101981000D03*
X137805000Y-101981000D03*
D16*
X138049000Y-120147000D03*
X138049000Y-118867000D03*
D13*
X120015000Y-81661000D03*
D14*
X120015000Y-84201000D03*
X120015000Y-86741000D03*
X120015000Y-89281000D03*
D13*
X125645000Y-71465000D03*
D14*
X125645000Y-74005000D03*
X125645000Y-76545000D03*
X125645000Y-79085000D03*
X125645000Y-81625000D03*
X125645000Y-84165000D03*
X125645000Y-86705000D03*
X125645000Y-89245000D03*
X125645000Y-91785000D03*
X125645000Y-94325000D03*
X125645000Y-96865000D03*
X125645000Y-99405000D03*
X125645000Y-101945000D03*
X125645000Y-104485000D03*
X125645000Y-107025000D03*
X125645000Y-109565000D03*
X125645000Y-112105000D03*
X125645000Y-114645000D03*
X125645000Y-117185000D03*
X125645000Y-119725000D03*
D13*
X146431000Y-116459000D03*
D14*
X146431000Y-113919000D03*
X146431000Y-111379000D03*
D13*
X143637000Y-63627000D03*
D14*
X143637000Y-61087000D03*
X143637000Y-58547000D03*
X143637000Y-56007000D03*
D13*
X140885000Y-71465000D03*
D14*
X140885000Y-74005000D03*
X140885000Y-76545000D03*
X140885000Y-79085000D03*
X140885000Y-81625000D03*
X140885000Y-84165000D03*
X140885000Y-86705000D03*
X140885000Y-89245000D03*
X140885000Y-91785000D03*
X140885000Y-94325000D03*
X140885000Y-96865000D03*
X140885000Y-99405000D03*
X140885000Y-101945000D03*
X140885000Y-104485000D03*
X140885000Y-107025000D03*
X140885000Y-109565000D03*
X140885000Y-112105000D03*
X140885000Y-114645000D03*
X140885000Y-117185000D03*
X140885000Y-119725000D03*
D13*
X122555000Y-56007000D03*
D14*
X122555000Y-58547000D03*
X122555000Y-61087000D03*
X122555000Y-63627000D03*
D13*
X146431000Y-106553000D03*
D14*
X146431000Y-104013000D03*
X146431000Y-101473000D03*
D15*
X136525000Y-96901000D03*
X137805000Y-96901000D03*
D17*
X127635000Y-33115000D03*
X127635000Y-28035000D03*
X132715000Y-28035000D03*
X132715000Y-33115000D03*
D18*
X130175000Y-30575000D03*
D12*
X145415000Y-28797000D03*
D13*
X146685000Y-87503000D03*
D14*
X146685000Y-90043000D03*
D19*
X147447000Y-95711000D03*
X147447000Y-93011000D03*
X125984000Y-55720000D03*
X125984000Y-58420000D03*
X128143000Y-55720000D03*
X128143000Y-58420000D03*
M02*
