M48
;DRILL file {KiCad 4.0.6} date Tue Sep  5 22:20:24 2017
;FORMAT={-:-/ absolute / metric / decimal}
FMAT,2
METRIC,TZ
T1C0.400
T2C1.000
T3C1.500
T4C1.700
T5C3.200
%
G90
G05
M71
T1
X53.975Y-94.107
X53.975Y-99.187
X54.229Y-32.385
X54.229Y-37.719
X54.483Y-66.167
X54.737Y-57.785
X54.737Y-60.579
X56.261Y-43.307
X56.515Y-40.005
X57.023Y-89.027
X57.023Y-94.107
X57.023Y-99.187
X57.785Y-114.681
X58.801Y-28.321
X58.801Y-32.385
X58.801Y-65.659
X60.325Y-64.135
X60.325Y-65.659
X60.579Y-53.594
X61.341Y-63.119
X61.849Y-35.687
X61.849Y-65.659
X62.103Y-37.973
X62.611Y-35.687
X62.865Y-99.695
X62.865Y-106.045
X62.865Y-113.919
X62.865Y-119.761
X63.119Y-32.639
X63.119Y-33.401
X63.119Y-34.163
X63.119Y-34.925
X63.373Y-37.973
X63.881Y-42.291
X64.135Y-37.211
X64.897Y-36.449
X65.151Y-32.639
X65.151Y-33.401
X65.151Y-34.163
X65.151Y-34.925
X65.151Y-35.687
X65.405Y-95.123
X65.659Y-121.539
X65.786Y-53.467
X66.167Y-116.967
X66.675Y-92.329
X66.675Y-122.555
X67.945Y-58.547
X68.199Y-74.041
X68.199Y-95.123
X68.453Y-42.291
X68.453Y-79.121
X68.453Y-84.455
X68.453Y-88.773
X68.961Y-119.761
X69.215Y-106.045
X69.215Y-113.919
X69.469Y-95.123
X69.723Y-56.007
X71.501Y-31.115
X71.755Y-122.555
X74.803Y-57.531
X74.803Y-53.721
X75.819Y-59.817
X76.835Y-122.555
X77.343Y-68.707
X77.851Y-89.281
X77.851Y-118.491
X78.613Y-31.115
X78.613Y-37.719
X78.613Y-42.291
X78.613Y-49.403
X78.613Y-53.721
X78.613Y-45.847
X79.629Y-81.153
X79.629Y-84.963
X79.883Y-91.567
X79.883Y-92.837
X80.645Y-47.117
X80.899Y-118.491
X81.407Y-98.425
X86.995Y-94.107
X86.995Y-99.187
X87.249Y-32.385
X87.249Y-37.719
X87.503Y-66.167
X87.757Y-57.785
X87.757Y-60.579
X89.281Y-43.307
X89.535Y-40.005
X90.043Y-89.027
X90.043Y-94.107
X90.043Y-99.187
X90.805Y-114.681
X91.821Y-28.321
X91.821Y-32.385
X91.821Y-65.659
X93.345Y-64.135
X93.345Y-65.659
X93.599Y-53.594
X94.361Y-63.119
X94.869Y-35.687
X94.869Y-65.659
X95.123Y-37.973
X95.631Y-35.687
X95.885Y-99.695
X95.885Y-106.045
X95.885Y-113.919
X95.885Y-119.761
X96.139Y-32.639
X96.139Y-33.401
X96.139Y-34.163
X96.139Y-34.925
X96.393Y-37.973
X96.901Y-42.291
X97.155Y-37.211
X97.917Y-36.449
X98.171Y-32.639
X98.171Y-33.401
X98.171Y-34.163
X98.171Y-34.925
X98.171Y-35.687
X98.425Y-95.123
X98.679Y-121.539
X98.806Y-53.467
X99.187Y-116.967
X99.695Y-92.329
X99.695Y-122.555
X100.965Y-58.547
X101.219Y-74.041
X101.219Y-95.123
X101.473Y-42.291
X101.473Y-79.121
X101.473Y-84.455
X101.473Y-88.773
X101.981Y-119.761
X102.235Y-106.045
X102.235Y-113.919
X102.489Y-95.123
X102.743Y-56.007
X104.521Y-31.115
X104.775Y-122.555
X107.823Y-57.531
X107.823Y-53.721
X108.839Y-59.817
X109.855Y-122.555
X110.363Y-68.707
X110.871Y-89.281
X110.871Y-118.491
X111.633Y-31.115
X111.633Y-37.719
X111.633Y-42.291
X111.633Y-49.403
X111.633Y-53.721
X111.633Y-45.847
X112.649Y-81.153
X112.649Y-84.963
X112.903Y-91.567
X112.903Y-92.837
X113.665Y-47.117
X113.919Y-118.491
X114.427Y-98.425
X120.015Y-94.107
X120.015Y-99.187
X120.269Y-32.385
X120.269Y-37.719
X120.523Y-66.167
X120.777Y-57.785
X120.777Y-60.579
X122.301Y-43.307
X122.555Y-40.005
X123.063Y-89.027
X123.063Y-94.107
X123.063Y-99.187
X123.825Y-114.681
X124.841Y-28.321
X124.841Y-32.385
X124.841Y-65.659
X126.365Y-64.135
X126.365Y-65.659
X126.619Y-53.594
X127.381Y-63.119
X127.889Y-35.687
X127.889Y-65.659
X128.143Y-37.973
X128.651Y-35.687
X128.905Y-99.695
X128.905Y-106.045
X128.905Y-113.919
X128.905Y-119.761
X129.159Y-32.639
X129.159Y-33.401
X129.159Y-34.163
X129.159Y-34.925
X129.413Y-37.973
X129.921Y-42.291
X130.175Y-37.211
X130.937Y-36.449
X131.191Y-32.639
X131.191Y-33.401
X131.191Y-34.163
X131.191Y-34.925
X131.191Y-35.687
X131.445Y-95.123
X131.699Y-121.539
X131.826Y-53.467
X132.207Y-116.967
X132.715Y-92.329
X132.715Y-122.555
X133.985Y-58.547
X134.239Y-74.041
X134.239Y-95.123
X134.493Y-42.291
X134.493Y-79.121
X134.493Y-84.455
X134.493Y-88.773
X135.001Y-119.761
X135.255Y-106.045
X135.255Y-113.919
X135.509Y-95.123
X135.763Y-56.007
X137.541Y-31.115
X137.795Y-122.555
X140.843Y-57.531
X140.843Y-53.721
X141.859Y-59.817
X142.875Y-122.555
X143.383Y-68.707
X143.891Y-89.281
X143.891Y-118.491
X144.653Y-31.115
X144.653Y-37.719
X144.653Y-42.291
X144.653Y-49.403
X144.653Y-53.721
X144.653Y-45.847
X145.669Y-81.153
X145.669Y-84.963
X145.923Y-91.567
X145.923Y-92.837
X146.685Y-47.117
X146.939Y-118.491
X147.447Y-98.425
T2
X53.975Y-81.661
X53.975Y-84.201
X53.975Y-86.741
X53.975Y-89.281
X53.975Y-101.981
X53.975Y-104.521
X53.975Y-107.061
X53.975Y-109.601
X56.515Y-56.007
X56.515Y-58.547
X56.515Y-61.087
X56.515Y-63.627
X59.605Y-71.465
X59.605Y-74.005
X59.605Y-76.545
X59.605Y-79.085
X59.605Y-81.625
X59.605Y-84.165
X59.605Y-86.705
X59.605Y-89.245
X59.605Y-91.785
X59.605Y-94.325
X59.605Y-96.865
X59.605Y-99.405
X59.605Y-101.945
X59.605Y-104.485
X59.605Y-107.025
X59.605Y-109.565
X59.605Y-112.105
X59.605Y-114.645
X59.605Y-117.185
X59.605Y-119.725
X74.845Y-71.465
X74.845Y-74.005
X74.845Y-76.545
X74.845Y-79.085
X74.845Y-81.625
X74.845Y-84.165
X74.845Y-86.705
X74.845Y-89.245
X74.845Y-91.785
X74.845Y-94.325
X74.845Y-96.865
X74.845Y-99.405
X74.845Y-101.945
X74.845Y-104.485
X74.845Y-107.025
X74.845Y-109.565
X74.845Y-112.105
X74.845Y-114.645
X74.845Y-117.185
X74.845Y-119.725
X77.597Y-56.007
X77.597Y-58.547
X77.597Y-61.087
X77.597Y-63.627
X80.391Y-101.473
X80.391Y-104.013
X80.391Y-106.553
X80.391Y-111.379
X80.391Y-113.919
X80.391Y-116.459
X80.645Y-71.501
X80.645Y-74.041
X80.645Y-76.581
X80.645Y-79.121
X80.645Y-87.503
X80.645Y-90.043
X86.995Y-81.661
X86.995Y-84.201
X86.995Y-86.741
X86.995Y-89.281
X86.995Y-101.981
X86.995Y-104.521
X86.995Y-107.061
X86.995Y-109.601
X89.535Y-56.007
X89.535Y-58.547
X89.535Y-61.087
X89.535Y-63.627
X92.625Y-71.465
X92.625Y-74.005
X92.625Y-76.545
X92.625Y-79.085
X92.625Y-81.625
X92.625Y-84.165
X92.625Y-86.705
X92.625Y-89.245
X92.625Y-91.785
X92.625Y-94.325
X92.625Y-96.865
X92.625Y-99.405
X92.625Y-101.945
X92.625Y-104.485
X92.625Y-107.025
X92.625Y-109.565
X92.625Y-112.105
X92.625Y-114.645
X92.625Y-117.185
X92.625Y-119.725
X107.865Y-71.465
X107.865Y-74.005
X107.865Y-76.545
X107.865Y-79.085
X107.865Y-81.625
X107.865Y-84.165
X107.865Y-86.705
X107.865Y-89.245
X107.865Y-91.785
X107.865Y-94.325
X107.865Y-96.865
X107.865Y-99.405
X107.865Y-101.945
X107.865Y-104.485
X107.865Y-107.025
X107.865Y-109.565
X107.865Y-112.105
X107.865Y-114.645
X107.865Y-117.185
X107.865Y-119.725
X110.617Y-56.007
X110.617Y-58.547
X110.617Y-61.087
X110.617Y-63.627
X113.411Y-101.473
X113.411Y-104.013
X113.411Y-106.553
X113.411Y-111.379
X113.411Y-113.919
X113.411Y-116.459
X113.665Y-71.501
X113.665Y-74.041
X113.665Y-76.581
X113.665Y-79.121
X113.665Y-87.503
X113.665Y-90.043
X120.015Y-81.661
X120.015Y-84.201
X120.015Y-86.741
X120.015Y-89.281
X120.015Y-101.981
X120.015Y-104.521
X120.015Y-107.061
X120.015Y-109.601
X122.555Y-56.007
X122.555Y-58.547
X122.555Y-61.087
X122.555Y-63.627
X125.645Y-71.465
X125.645Y-74.005
X125.645Y-76.545
X125.645Y-79.085
X125.645Y-81.625
X125.645Y-84.165
X125.645Y-86.705
X125.645Y-89.245
X125.645Y-91.785
X125.645Y-94.325
X125.645Y-96.865
X125.645Y-99.405
X125.645Y-101.945
X125.645Y-104.485
X125.645Y-107.025
X125.645Y-109.565
X125.645Y-112.105
X125.645Y-114.645
X125.645Y-117.185
X125.645Y-119.725
X140.885Y-71.465
X140.885Y-74.005
X140.885Y-76.545
X140.885Y-79.085
X140.885Y-81.625
X140.885Y-84.165
X140.885Y-86.705
X140.885Y-89.245
X140.885Y-91.785
X140.885Y-94.325
X140.885Y-96.865
X140.885Y-99.405
X140.885Y-101.945
X140.885Y-104.485
X140.885Y-107.025
X140.885Y-109.565
X140.885Y-112.105
X140.885Y-114.645
X140.885Y-117.185
X140.885Y-119.725
X143.637Y-56.007
X143.637Y-58.547
X143.637Y-61.087
X143.637Y-63.627
X146.431Y-101.473
X146.431Y-104.013
X146.431Y-106.553
X146.431Y-111.379
X146.431Y-113.919
X146.431Y-116.459
X146.685Y-71.501
X146.685Y-74.041
X146.685Y-76.581
X146.685Y-79.121
X146.685Y-87.503
X146.685Y-90.043
T3
X64.135Y-30.575
X97.155Y-30.575
X130.175Y-30.575
T4
X61.595Y-28.035
X61.595Y-33.115
X66.675Y-28.035
X66.675Y-33.115
X94.615Y-28.035
X94.615Y-33.115
X99.695Y-28.035
X99.695Y-33.115
X127.635Y-28.035
X127.635Y-33.115
X132.715Y-28.035
X132.715Y-33.115
T5
X54.991Y-28.797
X54.991Y-121.285
X79.375Y-28.797
X79.375Y-121.285
X88.011Y-28.797
X88.011Y-121.285
X112.395Y-28.797
X112.395Y-121.285
X121.031Y-28.797
X121.031Y-121.285
X145.415Y-28.797
X145.415Y-121.285
T0
M30
