G04 #@! TF.FileFunction,Drawing*
%FSLAX46Y46*%
G04 Gerber Fmt 4.6, Leading zero omitted, Abs format (unit mm)*
G04 Created by KiCad (PCBNEW 4.0.6) date Tue Sep  5 23:15:40 2017*
%MOMM*%
%LPD*%
G01*
G04 APERTURE LIST*
%ADD10C,0.100000*%
%ADD11C,0.300000*%
%ADD12C,0.200000*%
G04 APERTURE END LIST*
D10*
D11*
X117426429Y-113950714D02*
X117212143Y-113665000D01*
X117426429Y-113379285D01*
X119833571Y-120879285D02*
X121333571Y-120379285D01*
X119833571Y-119879285D01*
X120333571Y-118736428D02*
X121547857Y-118736428D01*
X121690714Y-118807857D01*
X121762143Y-118879285D01*
X121833571Y-119022142D01*
X121833571Y-119236428D01*
X121762143Y-119379285D01*
X121262143Y-118736428D02*
X121333571Y-118879285D01*
X121333571Y-119164999D01*
X121262143Y-119307857D01*
X121190714Y-119379285D01*
X121047857Y-119450714D01*
X120619286Y-119450714D01*
X120476429Y-119379285D01*
X120405000Y-119307857D01*
X120333571Y-119164999D01*
X120333571Y-118879285D01*
X120405000Y-118736428D01*
X121333571Y-118022142D02*
X120333571Y-118022142D01*
X120619286Y-118022142D02*
X120476429Y-117950714D01*
X120405000Y-117879285D01*
X120333571Y-117736428D01*
X120333571Y-117593571D01*
X121333571Y-116879285D02*
X121262143Y-117022143D01*
X121190714Y-117093571D01*
X121047857Y-117165000D01*
X120619286Y-117165000D01*
X120476429Y-117093571D01*
X120405000Y-117022143D01*
X120333571Y-116879285D01*
X120333571Y-116665000D01*
X120405000Y-116522143D01*
X120476429Y-116450714D01*
X120619286Y-116379285D01*
X121047857Y-116379285D01*
X121190714Y-116450714D01*
X121262143Y-116522143D01*
X121333571Y-116665000D01*
X121333571Y-116879285D01*
X121333571Y-115522142D02*
X121262143Y-115665000D01*
X121190714Y-115736428D01*
X121047857Y-115807857D01*
X120619286Y-115807857D01*
X120476429Y-115736428D01*
X120405000Y-115665000D01*
X120333571Y-115522142D01*
X120333571Y-115307857D01*
X120405000Y-115165000D01*
X120476429Y-115093571D01*
X120619286Y-115022142D01*
X121047857Y-115022142D01*
X121190714Y-115093571D01*
X121262143Y-115165000D01*
X121333571Y-115307857D01*
X121333571Y-115522142D01*
X120333571Y-114522142D02*
X121333571Y-114164999D01*
X120333571Y-113807857D01*
X121262143Y-112665000D02*
X121333571Y-112807857D01*
X121333571Y-113093571D01*
X121262143Y-113236428D01*
X121119286Y-113307857D01*
X120547857Y-113307857D01*
X120405000Y-113236428D01*
X120333571Y-113093571D01*
X120333571Y-112807857D01*
X120405000Y-112665000D01*
X120547857Y-112593571D01*
X120690714Y-112593571D01*
X120833571Y-113307857D01*
X121333571Y-110807857D02*
X119833571Y-110807857D01*
X121333571Y-110165000D02*
X120547857Y-110165000D01*
X120405000Y-110236429D01*
X120333571Y-110379286D01*
X120333571Y-110593571D01*
X120405000Y-110736429D01*
X120476429Y-110807857D01*
X121262143Y-108879286D02*
X121333571Y-109022143D01*
X121333571Y-109307857D01*
X121262143Y-109450714D01*
X121119286Y-109522143D01*
X120547857Y-109522143D01*
X120405000Y-109450714D01*
X120333571Y-109307857D01*
X120333571Y-109022143D01*
X120405000Y-108879286D01*
X120547857Y-108807857D01*
X120690714Y-108807857D01*
X120833571Y-109522143D01*
X121333571Y-108165000D02*
X120333571Y-108165000D01*
X120619286Y-108165000D02*
X120476429Y-108093572D01*
X120405000Y-108022143D01*
X120333571Y-107879286D01*
X120333571Y-107736429D01*
X121262143Y-106665001D02*
X121333571Y-106807858D01*
X121333571Y-107093572D01*
X121262143Y-107236429D01*
X121119286Y-107307858D01*
X120547857Y-107307858D01*
X120405000Y-107236429D01*
X120333571Y-107093572D01*
X120333571Y-106807858D01*
X120405000Y-106665001D01*
X120547857Y-106593572D01*
X120690714Y-106593572D01*
X120833571Y-107307858D01*
X84406429Y-113950714D02*
X84192143Y-113665000D01*
X84406429Y-113379285D01*
X86813571Y-120879285D02*
X88313571Y-120379285D01*
X86813571Y-119879285D01*
X87313571Y-118736428D02*
X88527857Y-118736428D01*
X88670714Y-118807857D01*
X88742143Y-118879285D01*
X88813571Y-119022142D01*
X88813571Y-119236428D01*
X88742143Y-119379285D01*
X88242143Y-118736428D02*
X88313571Y-118879285D01*
X88313571Y-119164999D01*
X88242143Y-119307857D01*
X88170714Y-119379285D01*
X88027857Y-119450714D01*
X87599286Y-119450714D01*
X87456429Y-119379285D01*
X87385000Y-119307857D01*
X87313571Y-119164999D01*
X87313571Y-118879285D01*
X87385000Y-118736428D01*
X88313571Y-118022142D02*
X87313571Y-118022142D01*
X87599286Y-118022142D02*
X87456429Y-117950714D01*
X87385000Y-117879285D01*
X87313571Y-117736428D01*
X87313571Y-117593571D01*
X88313571Y-116879285D02*
X88242143Y-117022143D01*
X88170714Y-117093571D01*
X88027857Y-117165000D01*
X87599286Y-117165000D01*
X87456429Y-117093571D01*
X87385000Y-117022143D01*
X87313571Y-116879285D01*
X87313571Y-116665000D01*
X87385000Y-116522143D01*
X87456429Y-116450714D01*
X87599286Y-116379285D01*
X88027857Y-116379285D01*
X88170714Y-116450714D01*
X88242143Y-116522143D01*
X88313571Y-116665000D01*
X88313571Y-116879285D01*
X88313571Y-115522142D02*
X88242143Y-115665000D01*
X88170714Y-115736428D01*
X88027857Y-115807857D01*
X87599286Y-115807857D01*
X87456429Y-115736428D01*
X87385000Y-115665000D01*
X87313571Y-115522142D01*
X87313571Y-115307857D01*
X87385000Y-115165000D01*
X87456429Y-115093571D01*
X87599286Y-115022142D01*
X88027857Y-115022142D01*
X88170714Y-115093571D01*
X88242143Y-115165000D01*
X88313571Y-115307857D01*
X88313571Y-115522142D01*
X87313571Y-114522142D02*
X88313571Y-114164999D01*
X87313571Y-113807857D01*
X88242143Y-112665000D02*
X88313571Y-112807857D01*
X88313571Y-113093571D01*
X88242143Y-113236428D01*
X88099286Y-113307857D01*
X87527857Y-113307857D01*
X87385000Y-113236428D01*
X87313571Y-113093571D01*
X87313571Y-112807857D01*
X87385000Y-112665000D01*
X87527857Y-112593571D01*
X87670714Y-112593571D01*
X87813571Y-113307857D01*
X88313571Y-110807857D02*
X86813571Y-110807857D01*
X88313571Y-110165000D02*
X87527857Y-110165000D01*
X87385000Y-110236429D01*
X87313571Y-110379286D01*
X87313571Y-110593571D01*
X87385000Y-110736429D01*
X87456429Y-110807857D01*
X88242143Y-108879286D02*
X88313571Y-109022143D01*
X88313571Y-109307857D01*
X88242143Y-109450714D01*
X88099286Y-109522143D01*
X87527857Y-109522143D01*
X87385000Y-109450714D01*
X87313571Y-109307857D01*
X87313571Y-109022143D01*
X87385000Y-108879286D01*
X87527857Y-108807857D01*
X87670714Y-108807857D01*
X87813571Y-109522143D01*
X88313571Y-108165000D02*
X87313571Y-108165000D01*
X87599286Y-108165000D02*
X87456429Y-108093572D01*
X87385000Y-108022143D01*
X87313571Y-107879286D01*
X87313571Y-107736429D01*
X88242143Y-106665001D02*
X88313571Y-106807858D01*
X88313571Y-107093572D01*
X88242143Y-107236429D01*
X88099286Y-107307858D01*
X87527857Y-107307858D01*
X87385000Y-107236429D01*
X87313571Y-107093572D01*
X87313571Y-106807858D01*
X87385000Y-106665001D01*
X87527857Y-106593572D01*
X87670714Y-106593572D01*
X87813571Y-107307858D01*
D12*
X116205000Y-124460000D02*
X116205000Y-25400000D01*
X83185000Y-25400000D02*
X83185000Y-124460000D01*
X50800000Y-124460000D02*
X50800000Y-25400000D01*
X149860000Y-124460000D02*
X50800000Y-124460000D01*
X149860000Y-25400000D02*
X149860000Y-124460000D01*
X50800000Y-25400000D02*
X149860000Y-25400000D01*
M02*
